<svg width="10" height="11" viewBox="0 0 10 11" fill="none" xmlns="http://www.w3.org/2000/svg">
<path d="M9.28571 6.21429H5.71429V9.78571C5.71429 10.1786 5.39286 10.5 5 10.5C4.60714 10.5 4.28571 10.1786 4.28571 9.78571V6.21429H0.714286C0.321429 6.21429 0 5.89286 0 5.5C0 5.10714 0.321429 4.78571 0.714286 4.78571H4.28571V1.21429C4.28571 0.821429 4.60714 0.5 5 0.5C5.39286 0.5 5.71429 0.821429 5.71429 1.21429V4.78571H9.28571C9.67857 4.78571 10 5.10714 10 5.5C10 5.89286 9.67857 6.21429 9.28571 6.21429Z" fill="#3CBCB4"/>
</svg>
